<mxfile host="65bd71144e">
    <diagram id="9iKpBGwfzpTBbl5t8Gc0" name="Page-1">
        <mxGraphModel dx="1122" dy="533" grid="1" gridSize="10" guides="1" tooltips="1" connect="1" arrows="1" fold="1" page="1" pageScale="1" pageWidth="100" pageHeight="100" math="0" shadow="0">
            <root>
                <mxCell id="0"/>
                <mxCell id="1" parent="0"/>
                <mxCell id="7" value="" style="shape=umlLifeline;participant=umlControl;perimeter=lifelinePerimeter;whiteSpace=wrap;html=1;container=1;collapsible=0;recursiveResize=0;verticalAlign=top;spacingTop=36;outlineConnect=0;fontFamily=仿宋;fillColor=#f8cecc;strokeColor=#b85450;" vertex="1" parent="1">
                    <mxGeometry x="-5" y="-70" width="40" height="240" as="geometry"/>
                </mxCell>
                <mxCell id="11" value="通知系统" style="shape=umlLifeline;perimeter=lifelinePerimeter;whiteSpace=wrap;html=1;container=1;collapsible=0;recursiveResize=0;outlineConnect=0;fontFamily=仿宋;fillColor=#fff2cc;strokeColor=#d6b656;" vertex="1" parent="1">
                    <mxGeometry x="85" y="-80" width="100" height="240" as="geometry"/>
                </mxCell>
                <mxCell id="8" value="" style="html=1;points=[];perimeter=orthogonalPerimeter;fontFamily=仿宋;fillColor=#fff2cc;strokeColor=#d6b656;" vertex="1" parent="11">
                    <mxGeometry x="45" y="140" width="10" height="80" as="geometry"/>
                </mxCell>
                <mxCell id="21" style="edgeStyle=none;html=1;fontFamily=仿宋;fillColor=#f8cecc;strokeColor=#b85450;" edge="1" parent="1" source="20" target="11">
                    <mxGeometry relative="1" as="geometry"/>
                </mxCell>
                <mxCell id="20" value="&lt;span style=&quot;font-size: 11px; background-color: rgb(248, 206, 204);&quot;&gt;2个月未完成项目通知&lt;/span&gt;" style="ellipse;shape=umlControl;whiteSpace=wrap;html=1;fontFamily=仿宋;fillColor=#f8cecc;strokeColor=#b85450;" vertex="1" parent="1">
                    <mxGeometry x="-20" y="20" width="70" height="80" as="geometry"/>
                </mxCell>
                <mxCell id="23" value="用户平台" style="shape=umlLifeline;perimeter=lifelinePerimeter;whiteSpace=wrap;html=1;container=1;collapsible=0;recursiveResize=0;outlineConnect=0;fontFamily=仿宋;fillColor=#fff2cc;strokeColor=#d6b656;" vertex="1" parent="1">
                    <mxGeometry x="215" y="-80" width="100" height="260" as="geometry"/>
                </mxCell>
                <mxCell id="29" value="" style="html=1;points=[];perimeter=orthogonalPerimeter;fontFamily=仿宋;fillColor=#fff2cc;strokeColor=#d6b656;" vertex="1" parent="23">
                    <mxGeometry x="45" y="170" width="10" height="80" as="geometry"/>
                </mxCell>
                <mxCell id="30" value="站内信" style="html=1;verticalAlign=bottom;endArrow=block;entryX=0;entryY=0;fontFamily=仿宋;fillColor=#fff2cc;strokeColor=#d6b656;" edge="1" target="29" parent="1" source="11">
                    <mxGeometry relative="1" as="geometry">
                        <mxPoint x="190" y="90" as="sourcePoint"/>
                    </mxGeometry>
                </mxCell>
                <mxCell id="32" value="触发" style="text;html=1;align=center;verticalAlign=middle;resizable=0;points=[];autosize=1;strokeColor=none;fillColor=none;fontFamily=仿宋;" vertex="1" parent="1">
                    <mxGeometry x="60" y="30" width="50" height="30" as="geometry"/>
                </mxCell>
                <mxCell id="33" value="dmsOrder维护系统" style="shape=umlLifeline;perimeter=lifelinePerimeter;whiteSpace=wrap;html=1;container=1;collapsible=0;recursiveResize=0;outlineConnect=0;fontFamily=仿宋;fillColor=#fff2cc;strokeColor=#d6b656;" vertex="1" parent="1">
                    <mxGeometry x="-200" y="-70" width="100" height="240" as="geometry"/>
                </mxCell>
                <mxCell id="35" value="" style="html=1;points=[];perimeter=orthogonalPerimeter;fontFamily=仿宋;fillColor=#fff2cc;strokeColor=#d6b656;" vertex="1" parent="33">
                    <mxGeometry x="45" y="110" width="10" height="60" as="geometry"/>
                </mxCell>
                <mxCell id="36" value="查询采购单" style="html=1;verticalAlign=bottom;endArrow=block;entryX=1;entryY=0;exitX=0.071;exitY=0.25;exitDx=0;exitDy=0;exitPerimeter=0;fontFamily=仿宋;fillColor=#f8cecc;strokeColor=#b85450;" edge="1" target="35" parent="1" source="20">
                    <mxGeometry relative="1" as="geometry">
                        <mxPoint x="-50" y="40" as="sourcePoint"/>
                    </mxGeometry>
                </mxCell>
                <mxCell id="37" value="返回符合条件的采购单" style="html=1;verticalAlign=bottom;endArrow=open;dashed=1;endSize=8;exitX=1;exitY=0.95;entryX=0.233;entryY=0.967;entryDx=0;entryDy=0;entryPerimeter=0;fontFamily=仿宋;fillColor=#fff2cc;strokeColor=#d6b656;" edge="1" source="35" parent="1" target="20">
                    <mxGeometry relative="1" as="geometry">
                        <mxPoint x="-50" y="97" as="targetPoint"/>
                    </mxGeometry>
                </mxCell>
                <mxCell id="38" value="定时任务" style="text;html=1;align=center;verticalAlign=middle;resizable=0;points=[];autosize=1;strokeColor=none;fillColor=none;fontFamily=仿宋;" vertex="1" parent="1">
                    <mxGeometry x="-20" y="-100" width="70" height="30" as="geometry"/>
                </mxCell>
            </root>
        </mxGraphModel>
    </diagram>
</mxfile>